<svg xmlns="http://www.w3.org/2000/svg" xmlns:xlink="http://www.w3.org/1999/xlink" width="500" zoomAndPan="magnify" viewBox="0 0 375 374.999991" height="500" preserveAspectRatio="xMidYMid meet" version="1.0"><rect x="-37.5" width="450" fill="#ffffff" y="-37.499999" height="449.999989" fill-opacity="1"/><rect x="-37.5" width="450" fill="#e51636" y="-37.499999" height="449.999989" fill-opacity="1"/><path fill="#ffffff" d="M 25.601562 133.632812 L 51.582031 133.632812 L 51.582031 250.207031 L 25.601562 250.207031 Z M 93.71875 155.871094 C 85.292969 155.871094 78.035156 157.667969 71.949219 161.257812 C 66.019531 164.84375 61.257812 169.214844 57.667969 174.363281 C 54.082031 179.515625 51.582031 184.507812 50.179688 189.347656 L 49.945312 176.238281 C 50.101562 174.519531 50.648438 171.945312 51.582031 168.511719 C 52.519531 164.921875 53.925781 161.023438 55.796875 156.808594 C 57.824219 152.59375 60.480469 148.539062 63.757812 144.636719 C 67.1875 140.578125 71.324219 137.300781 76.164062 134.804688 C 81.15625 132.308594 87.007812 131.058594 93.71875 131.058594 Z M 201.398438 211.816406 L 226.445312 211.816406 C 225.195312 219.777344 222.074219 226.878906 217.082031 233.121094 C 212.242188 239.207031 205.609375 244.042969 197.183594 247.632812 C 188.757812 251.066406 178.691406 252.78125 166.988281 252.78125 C 153.722656 252.78125 141.863281 250.363281 131.40625 245.527344 C 120.949219 240.53125 112.757812 233.511719 106.828125 224.457031 C 100.898438 215.40625 97.933594 204.640625 97.933594 192.15625 C 97.933594 179.828125 100.820312 169.058594 106.59375 159.851562 C 112.367188 150.644531 120.328125 143.542969 130.46875 138.550781 C 140.769531 133.554688 152.628906 131.058594 166.050781 131.058594 C 179.941406 131.058594 191.488281 133.554688 200.695312 138.550781 C 210.058594 143.386719 217.003906 150.722656 221.527344 160.554688 C 226.054688 170.230469 227.925781 182.480469 227.148438 197.304688 L 124.382812 197.304688 C 125.164062 203.859375 127.269531 209.789062 130.703125 215.09375 C 134.292969 220.246094 139.132812 224.300781 145.21875 227.269531 C 151.304688 230.078125 158.402344 231.480469 166.519531 231.480469 C 175.570312 231.480469 183.140625 229.6875 189.226562 226.097656 C 195.46875 222.507812 199.523438 217.75 201.398438 211.816406 Z M 165.347656 152.125 C 154.738281 152.125 145.996094 154.78125 139.132812 160.085938 C 132.265625 165.234375 127.816406 171.867188 125.789062 179.984375 L 200.929688 179.984375 C 200.304688 171.242188 196.792969 164.457031 190.394531 159.617188 C 183.996094 154.625 175.648438 152.125 165.347656 152.125 Z M 165.347656 152.125 " fill-opacity="1" fill-rule="nonzero"/><path fill="#ffffff" d="M 292.925781 232.183594 C 282 232.183594 272.089844 230.234375 263.195312 226.332031 C 254.457031 222.429688 247.511719 216.734375 242.363281 209.242188 C 237.367188 201.753906 234.871094 192.78125 234.871094 182.324219 C 234.871094 171.867188 237.289062 162.816406 242.128906 155.167969 C 247.121094 147.523438 253.988281 141.59375 262.726562 137.378906 C 271.625 133.164062 281.6875 131.058594 292.925781 131.058594 C 296.203125 131.058594 299.324219 131.292969 302.289062 131.761719 C 305.410156 132.230469 308.375 132.855469 311.183594 133.632812 L 365.726562 133.867188 L 365.726562 155.636719 C 358.234375 155.792969 350.664062 154.78125 343.019531 152.59375 C 335.527344 150.253906 328.894531 147.835938 323.121094 145.339844 L 322.417969 143.933594 C 327.726562 146.585938 332.484375 149.863281 336.699219 153.765625 C 341.066406 157.511719 344.5 161.800781 347 166.640625 C 349.496094 171.476562 350.742188 176.941406 350.742188 183.027344 C 350.742188 193.324219 348.246094 202.144531 343.253906 209.476562 C 338.414062 216.8125 331.625 222.429688 322.886719 226.332031 C 314.304688 230.234375 304.316406 232.183594 292.925781 232.183594 Z M 330.378906 297.726562 L 330.378906 292.34375 C 330.378906 284.695312 328.117188 279.3125 323.589844 276.191406 C 319.0625 273.070312 312.742188 271.507812 304.628906 271.507812 L 273.027344 271.507812 C 266.785156 271.507812 261.402344 270.964844 256.875 269.871094 C 252.507812 268.933594 248.996094 267.453125 246.34375 265.421875 C 243.6875 263.550781 241.738281 261.289062 240.488281 258.636719 C 239.242188 256.136719 238.617188 253.328125 238.617188 250.207031 C 238.617188 243.964844 240.488281 239.285156 244.234375 236.164062 C 248.136719 233.042969 253.207031 231.011719 259.449219 230.078125 C 265.847656 229.140625 272.558594 228.984375 279.582031 229.609375 L 292.925781 232.183594 C 283.71875 232.496094 276.695312 233.355469 271.855469 234.757812 C 267.175781 236.007812 264.835938 238.582031 264.835938 242.484375 C 264.835938 244.824219 265.769531 246.695312 267.644531 248.101562 C 269.515625 249.503906 272.167969 250.207031 275.601562 250.207031 L 308.84375 250.207031 C 318.363281 250.207031 326.710938 251.300781 333.890625 253.484375 C 341.066406 255.824219 346.609375 259.648438 350.507812 264.957031 C 354.566406 270.417969 356.597656 277.828125 356.597656 287.191406 L 356.597656 297.726562 Z M 292.925781 211.816406 C 299.167969 211.816406 304.707031 210.648438 309.542969 208.308594 C 314.382812 205.964844 318.207031 202.609375 321.015625 198.242188 C 323.824219 193.871094 325.226562 188.566406 325.226562 182.324219 C 325.226562 176.082031 323.824219 170.695312 321.015625 166.171875 C 318.207031 161.644531 314.382812 158.210938 309.542969 155.871094 C 304.707031 153.53125 299.167969 152.359375 292.925781 152.359375 C 286.839844 152.359375 281.296875 153.53125 276.304688 155.871094 C 271.46875 158.210938 267.644531 161.644531 264.835938 166.171875 C 262.027344 170.542969 260.621094 175.925781 260.621094 182.324219 C 260.621094 188.566406 262.027344 193.871094 264.835938 198.242188 C 267.644531 202.609375 271.46875 205.964844 276.304688 208.308594 C 281.144531 210.648438 286.683594 211.816406 292.925781 211.816406 Z M 498.703125 250.207031 L 472.71875 250.207031 L 472.71875 133.632812 L 498.703125 133.632812 Z M 474.125 194.730469 L 474.359375 202.21875 C 474.042969 204.25 473.339844 207.292969 472.25 211.351562 C 471.316406 215.40625 469.675781 219.855469 467.335938 224.691406 C 465.148438 229.375 462.1875 233.898438 458.441406 238.269531 C 454.847656 242.484375 450.324219 245.996094 444.863281 248.804688 C 439.398438 251.457031 432.769531 252.78125 424.964844 252.78125 C 419.34375 252.78125 413.648438 252.003906 407.875 250.441406 C 402.257812 249.039062 397.109375 246.617188 392.425781 243.183594 C 387.902344 239.753906 384.234375 235.070312 381.425781 229.140625 C 378.613281 223.210938 377.210938 215.71875 377.210938 206.667969 L 377.210938 133.632812 L 403.195312 133.632812 L 403.195312 201.753906 C 403.195312 209.085938 404.367188 214.859375 406.707031 219.074219 C 409.203125 223.132812 412.636719 226.019531 417.007812 227.734375 C 421.375 229.453125 426.449219 230.3125 432.222656 230.3125 C 440.492188 230.3125 447.515625 228.4375 453.289062 224.691406 C 459.0625 220.949219 463.667969 216.34375 467.101562 210.882812 C 470.691406 205.265625 473.03125 199.878906 474.125 194.730469 Z M 570.003906 252.78125 C 559.394531 252.78125 549.636719 250.207031 540.742188 245.058594 C 532.003906 239.910156 524.984375 232.808594 519.675781 223.757812 C 514.527344 214.550781 511.949219 204.015625 511.949219 192.15625 C 511.949219 179.984375 514.601562 169.371094 519.910156 160.320312 C 525.21875 151.113281 532.394531 143.933594 541.445312 138.785156 C 550.5 133.632812 560.640625 131.058594 571.875 131.058594 C 584.359375 131.058594 594.273438 133.789062 601.605469 139.253906 C 608.9375 144.714844 614.167969 152.046875 617.289062 161.257812 C 620.410156 170.464844 621.972656 180.761719 621.972656 192.15625 C 621.972656 198.554688 621.035156 205.339844 619.160156 212.519531 C 617.289062 219.542969 614.324219 226.097656 610.265625 232.183594 C 606.363281 238.269531 601.058594 243.261719 594.347656 247.164062 C 587.792969 250.910156 579.679688 252.78125 570.003906 252.78125 Z M 577.960938 231.246094 C 586.699219 231.246094 594.113281 229.609375 600.199219 226.332031 C 606.445312 222.898438 611.125 218.214844 614.246094 212.285156 C 617.523438 206.355469 619.160156 199.644531 619.160156 192.15625 C 619.160156 183.882812 617.523438 176.863281 614.246094 171.085938 C 610.96875 165.15625 606.285156 160.632812 600.199219 157.511719 C 594.113281 154.234375 586.699219 152.59375 577.960938 152.59375 C 565.480469 152.59375 555.800781 156.261719 548.9375 163.597656 C 542.070312 170.929688 538.636719 180.449219 538.636719 192.15625 C 538.636719 199.800781 540.273438 206.589844 543.550781 212.519531 C 546.988281 218.449219 551.667969 223.054688 557.597656 226.332031 C 563.527344 229.609375 570.316406 231.246094 577.960938 231.246094 Z M 619.160156 133.632812 L 645.378906 133.632812 L 645.378906 250.207031 L 621.035156 250.207031 C 621.035156 250.207031 620.878906 248.726562 620.566406 245.761719 C 620.253906 242.796875 619.941406 239.207031 619.628906 234.992188 C 619.320312 230.621094 619.160156 226.488281 619.160156 222.585938 Z M 664.578125 133.632812 L 690.5625 133.632812 L 690.5625 250.207031 L 664.578125 250.207031 Z M 732.695312 155.871094 C 724.269531 155.871094 717.011719 157.667969 710.925781 161.257812 C 704.996094 164.84375 700.234375 169.214844 696.648438 174.363281 C 693.058594 179.515625 690.5625 184.507812 689.15625 189.347656 L 688.921875 176.238281 C 689.078125 174.519531 689.625 171.945312 690.5625 168.511719 C 691.496094 164.921875 692.902344 161.023438 694.773438 156.808594 C 696.804688 152.59375 699.457031 148.539062 702.734375 144.636719 C 706.167969 140.578125 710.300781 137.300781 715.140625 134.804688 C 720.132812 132.308594 725.984375 131.058594 732.695312 131.058594 Z M 794.960938 252.78125 C 784.195312 252.78125 774.363281 250.207031 765.46875 245.058594 C 756.730469 239.910156 749.785156 232.808594 744.632812 223.757812 C 739.484375 214.550781 736.910156 204.015625 736.910156 192.15625 C 736.910156 179.984375 739.40625 169.371094 744.402344 160.320312 C 749.550781 151.113281 756.414062 143.933594 765 138.785156 C 773.738281 133.632812 783.726562 131.058594 794.960938 131.058594 C 804.792969 131.058594 813.0625 132.699219 819.777344 135.976562 C 826.488281 139.097656 831.789062 143.464844 835.695312 149.082031 C 839.597656 154.546875 842.40625 160.945312 844.121094 168.277344 C 845.992188 175.613281 846.929688 183.570312 846.929688 192.15625 C 846.929688 198.554688 845.992188 205.339844 844.121094 212.519531 C 842.246094 219.542969 839.28125 226.097656 835.226562 232.183594 C 831.324219 238.269531 826.019531 243.261719 819.308594 247.164062 C 812.753906 250.910156 804.636719 252.78125 794.960938 252.78125 Z M 802.921875 231.246094 C 811.660156 231.246094 819.074219 229.609375 825.160156 226.332031 C 831.402344 222.898438 836.085938 218.214844 839.203125 212.285156 C 842.480469 206.355469 844.121094 199.644531 844.121094 192.15625 C 844.121094 183.882812 842.480469 176.863281 839.203125 171.085938 C 835.925781 165.15625 831.246094 160.554688 825.160156 157.277344 C 819.074219 154 811.660156 152.359375 802.921875 152.359375 C 790.4375 152.359375 780.761719 156.105469 773.894531 163.597656 C 767.03125 170.929688 763.59375 180.449219 763.59375 192.15625 C 763.59375 199.800781 765.234375 206.589844 768.511719 212.519531 C 771.945312 218.449219 776.628906 223.054688 782.554688 226.332031 C 788.484375 229.609375 795.273438 231.246094 802.921875 231.246094 Z M 844.121094 86.816406 L 870.339844 86.816406 L 870.339844 250.207031 L 845.992188 250.207031 C 845.683594 246.617188 845.289062 242.171875 844.824219 236.863281 C 844.355469 231.558594 844.121094 226.800781 844.121094 222.585938 Z M 844.121094 86.816406 " fill-opacity="1" fill-rule="nonzero"/></svg>