<svg xmlns="http://www.w3.org/2000/svg" xmlns:xlink="http://www.w3.org/1999/xlink" width="500" zoomAndPan="magnify" viewBox="0 0 375 108.749999" height="145" preserveAspectRatio="xMidYMid meet" version="1.0"><path fill="#e51636" d="M 11.125 32.289062 L 21.980469 32.289062 L 21.980469 80.992188 L 11.125 80.992188 Z M 39.585938 41.578125 C 36.066406 41.578125 33.035156 42.328125 30.492188 43.828125 C 28.011719 45.328125 26.023438 47.152344 24.523438 49.304688 C 23.027344 51.457031 21.980469 53.542969 21.394531 55.566406 L 21.296875 50.085938 C 21.363281 49.371094 21.589844 48.292969 21.980469 46.859375 C 22.375 45.359375 22.960938 43.730469 23.742188 41.96875 C 24.589844 40.210938 25.699219 38.515625 27.066406 36.882812 C 28.503906 35.1875 30.230469 33.820312 32.25 32.777344 C 34.339844 31.734375 36.78125 31.210938 39.585938 31.210938 Z M 84.578125 64.953125 L 95.042969 64.953125 C 94.519531 68.277344 93.214844 71.246094 91.128906 73.855469 C 89.109375 76.398438 86.335938 78.417969 82.816406 79.917969 C 79.296875 81.351562 75.089844 82.070312 70.199219 82.070312 C 64.65625 82.070312 59.703125 81.058594 55.332031 79.039062 C 50.964844 76.949219 47.542969 74.015625 45.0625 70.234375 C 42.585938 66.453125 41.347656 61.953125 41.347656 56.738281 C 41.347656 51.585938 42.554688 47.089844 44.964844 43.242188 C 47.378906 39.394531 50.703125 36.425781 54.941406 34.339844 C 59.246094 32.253906 64.199219 31.210938 69.808594 31.210938 C 75.609375 31.210938 80.4375 32.253906 84.28125 34.339844 C 88.195312 36.363281 91.097656 39.425781 92.988281 43.535156 C 94.878906 47.578125 95.660156 52.695312 95.335938 58.890625 L 52.398438 58.890625 C 52.726562 61.628906 53.605469 64.105469 55.039062 66.324219 C 56.539062 68.472656 58.5625 70.167969 61.105469 71.410156 C 63.648438 72.582031 66.613281 73.167969 70.003906 73.167969 C 73.785156 73.167969 76.949219 72.417969 79.492188 70.917969 C 82.097656 69.421875 83.792969 67.429688 84.578125 64.953125 Z M 69.515625 40.015625 C 65.082031 40.015625 61.429688 41.121094 58.5625 43.339844 C 55.691406 45.492188 53.832031 48.261719 52.984375 51.652344 L 84.378906 51.652344 C 84.121094 48 82.652344 45.164062 79.980469 43.144531 C 77.304688 41.058594 73.816406 40.015625 69.515625 40.015625 Z M 69.515625 40.015625 " fill-opacity="1" fill-rule="nonzero"/><path fill="#ffffff" d="M 122.816406 73.460938 C 118.253906 73.460938 114.113281 72.648438 110.398438 71.015625 C 106.746094 69.386719 103.84375 67.007812 101.691406 63.878906 C 99.605469 60.75 98.5625 57 98.5625 52.628906 C 98.5625 48.261719 99.574219 44.480469 101.59375 41.285156 C 103.679688 38.089844 106.550781 35.613281 110.199219 33.851562 C 113.917969 32.089844 118.121094 31.210938 122.816406 31.210938 C 124.1875 31.210938 125.492188 31.308594 126.730469 31.503906 C 128.035156 31.699219 129.273438 31.960938 130.445312 32.289062 L 153.234375 32.386719 L 153.234375 41.480469 C 150.105469 41.546875 146.941406 41.121094 143.746094 40.210938 C 140.617188 39.230469 137.847656 38.222656 135.433594 37.175781 L 135.140625 36.589844 C 137.359375 37.699219 139.347656 39.066406 141.105469 40.699219 C 142.933594 42.261719 144.367188 44.054688 145.410156 46.078125 C 146.453125 48.097656 146.976562 50.382812 146.976562 52.921875 C 146.976562 57.226562 145.933594 60.910156 143.84375 63.976562 C 141.824219 67.039062 138.988281 69.386719 135.335938 71.015625 C 131.75 72.648438 127.578125 73.460938 122.816406 73.460938 Z M 138.464844 100.847656 L 138.464844 98.597656 C 138.464844 95.402344 137.519531 93.152344 135.628906 91.847656 C 133.738281 90.546875 131.097656 89.894531 127.707031 89.894531 L 114.503906 89.894531 C 111.894531 89.894531 109.648438 89.664062 107.753906 89.207031 C 105.929688 88.816406 104.464844 88.199219 103.355469 87.351562 C 102.246094 86.566406 101.429688 85.621094 100.910156 84.515625 C 100.386719 83.472656 100.128906 82.296875 100.128906 80.992188 C 100.128906 78.386719 100.910156 76.429688 102.472656 75.125 C 104.105469 73.820312 106.222656 72.972656 108.832031 72.582031 C 111.503906 72.191406 114.308594 72.125 117.242188 72.386719 L 122.816406 73.460938 C 118.96875 73.59375 116.035156 73.953125 114.015625 74.539062 C 112.058594 75.058594 111.082031 76.136719 111.082031 77.765625 C 111.082031 78.742188 111.472656 79.527344 112.253906 80.113281 C 113.039062 80.699219 114.144531 80.992188 115.582031 80.992188 L 129.46875 80.992188 C 133.445312 80.992188 136.933594 81.449219 139.933594 82.363281 C 142.933594 83.339844 145.246094 84.9375 146.878906 87.15625 C 148.574219 89.4375 149.421875 92.535156 149.421875 96.445312 L 149.421875 100.847656 Z M 122.816406 64.953125 C 125.425781 64.953125 127.742188 64.464844 129.761719 63.488281 C 131.78125 62.507812 133.378906 61.105469 134.554688 59.28125 C 135.726562 57.457031 136.3125 55.238281 136.3125 52.628906 C 136.3125 50.023438 135.726562 47.773438 134.554688 45.882812 C 133.378906 43.992188 131.78125 42.558594 129.761719 41.578125 C 127.742188 40.601562 125.425781 40.113281 122.816406 40.113281 C 120.273438 40.113281 117.960938 40.601562 115.875 41.578125 C 113.851562 42.558594 112.253906 43.992188 111.082031 45.882812 C 109.90625 47.707031 109.320312 49.957031 109.320312 52.628906 C 109.320312 55.238281 109.90625 57.457031 111.082031 59.28125 C 112.253906 61.105469 113.851562 62.507812 115.875 63.488281 C 117.894531 64.464844 120.210938 64.953125 122.816406 64.953125 Z M 208.792969 80.992188 L 197.9375 80.992188 L 197.9375 32.289062 L 208.792969 32.289062 Z M 198.523438 57.8125 L 198.621094 60.945312 C 198.492188 61.792969 198.199219 63.0625 197.742188 64.757812 C 197.351562 66.453125 196.667969 68.3125 195.6875 70.332031 C 194.773438 72.289062 193.535156 74.179688 191.972656 76.003906 C 190.472656 77.765625 188.582031 79.234375 186.300781 80.40625 C 184.015625 81.515625 181.246094 82.070312 177.984375 82.070312 C 175.636719 82.070312 173.257812 81.742188 170.84375 81.089844 C 168.496094 80.503906 166.347656 79.492188 164.390625 78.058594 C 162.5 76.625 160.96875 74.667969 159.792969 72.191406 C 158.621094 69.714844 158.03125 66.582031 158.03125 62.800781 L 158.03125 32.289062 L 168.890625 32.289062 L 168.890625 60.75 C 168.890625 63.8125 169.378906 66.226562 170.359375 67.984375 C 171.398438 69.679688 172.835938 70.886719 174.660156 71.605469 C 176.484375 72.320312 178.605469 72.679688 181.019531 72.679688 C 184.472656 72.679688 187.40625 71.898438 189.820312 70.332031 C 192.230469 68.769531 194.15625 66.84375 195.589844 64.5625 C 197.089844 62.214844 198.066406 59.964844 198.523438 57.8125 Z M 238.585938 82.070312 C 234.152344 82.070312 230.074219 80.992188 226.359375 78.839844 C 222.707031 76.691406 219.773438 73.722656 217.558594 69.941406 C 215.40625 66.09375 214.328125 61.695312 214.328125 56.738281 C 214.328125 51.652344 215.4375 47.21875 217.65625 43.4375 C 219.871094 39.589844 222.871094 36.589844 226.652344 34.4375 C 230.433594 32.289062 234.671875 31.210938 239.367188 31.210938 C 244.582031 31.210938 248.722656 32.351562 251.789062 34.632812 C 254.851562 36.917969 257.039062 39.980469 258.339844 43.828125 C 259.644531 47.675781 260.296875 51.976562 260.296875 56.738281 C 260.296875 59.410156 259.90625 62.246094 259.125 65.246094 C 258.339844 68.179688 257.101562 70.917969 255.40625 73.460938 C 253.777344 76.003906 251.558594 78.09375 248.757812 79.722656 C 246.019531 81.285156 242.625 82.070312 238.585938 82.070312 Z M 241.910156 73.070312 C 245.5625 73.070312 248.660156 72.386719 251.203125 71.015625 C 253.808594 69.582031 255.765625 67.625 257.070312 65.148438 C 258.4375 62.671875 259.125 59.867188 259.125 56.738281 C 259.125 53.28125 258.4375 50.347656 257.070312 47.9375 C 255.699219 45.457031 253.742188 43.566406 251.203125 42.261719 C 248.660156 40.894531 245.5625 40.210938 241.910156 40.210938 C 236.695312 40.210938 232.652344 41.742188 229.78125 44.804688 C 226.914062 47.871094 225.480469 51.847656 225.480469 56.738281 C 225.480469 59.933594 226.164062 62.769531 227.53125 65.246094 C 228.96875 67.726562 230.925781 69.648438 233.402344 71.015625 C 235.878906 72.386719 238.714844 73.070312 241.910156 73.070312 Z M 259.125 32.289062 L 270.078125 32.289062 L 270.078125 80.992188 L 259.90625 80.992188 C 259.90625 80.992188 259.839844 80.375 259.710938 79.136719 C 259.582031 77.894531 259.449219 76.398438 259.320312 74.636719 C 259.1875 72.808594 259.125 71.082031 259.125 69.453125 Z M 278.097656 32.289062 L 288.953125 32.289062 L 288.953125 80.992188 L 278.097656 80.992188 Z M 306.558594 41.578125 C 303.039062 41.578125 300.007812 42.328125 297.464844 43.828125 C 294.988281 45.328125 292.996094 47.152344 291.496094 49.304688 C 290 51.457031 288.953125 53.542969 288.367188 55.566406 L 288.269531 50.085938 C 288.335938 49.371094 288.5625 48.292969 288.953125 46.859375 C 289.347656 45.359375 289.933594 43.730469 290.714844 41.96875 C 291.5625 40.210938 292.671875 38.515625 294.039062 36.882812 C 295.476562 35.1875 297.203125 33.820312 299.222656 32.777344 C 301.308594 31.734375 303.753906 31.210938 306.558594 31.210938 Z M 332.574219 82.070312 C 328.074219 82.070312 323.96875 80.992188 320.25 78.839844 C 316.601562 76.691406 313.699219 73.722656 311.546875 69.941406 C 309.394531 66.09375 308.320312 61.695312 308.320312 56.738281 C 308.320312 51.652344 309.363281 47.21875 311.449219 43.4375 C 313.601562 39.589844 316.46875 36.589844 320.054688 34.4375 C 323.707031 32.289062 327.878906 31.210938 332.574219 31.210938 C 336.683594 31.210938 340.136719 31.894531 342.941406 33.265625 C 345.746094 34.570312 347.960938 36.394531 349.59375 38.742188 C 351.222656 41.023438 352.398438 43.699219 353.113281 46.761719 C 353.894531 49.828125 354.289062 53.152344 354.289062 56.738281 C 354.289062 59.410156 353.894531 62.246094 353.113281 65.246094 C 352.332031 68.179688 351.09375 70.917969 349.398438 73.460938 C 347.765625 76.003906 345.550781 78.09375 342.746094 79.722656 C 340.007812 81.285156 336.617188 82.070312 332.574219 82.070312 Z M 335.902344 73.070312 C 339.550781 73.070312 342.648438 72.386719 345.191406 71.015625 C 347.800781 69.582031 349.757812 67.625 351.058594 65.148438 C 352.429688 62.671875 353.113281 59.867188 353.113281 56.738281 C 353.113281 53.28125 352.429688 50.347656 351.058594 47.9375 C 349.691406 45.457031 347.734375 43.535156 345.191406 42.164062 C 342.648438 40.796875 339.550781 40.113281 335.902344 40.113281 C 330.683594 40.113281 326.640625 41.675781 323.773438 44.804688 C 320.90625 47.871094 319.46875 51.847656 319.46875 56.738281 C 319.46875 59.933594 320.152344 62.769531 321.523438 65.246094 C 322.957031 67.726562 324.914062 69.648438 327.390625 71.015625 C 329.867188 72.386719 332.703125 73.070312 335.902344 73.070312 Z M 353.113281 12.726562 L 364.066406 12.726562 L 364.066406 80.992188 L 353.894531 80.992188 C 353.765625 79.492188 353.601562 77.636719 353.40625 75.417969 C 353.210938 73.203125 353.113281 71.214844 353.113281 69.453125 Z M 353.113281 12.726562 " fill-opacity="1" fill-rule="nonzero"/></svg>